<svg t="1584774141872" class="icon" viewBox="0 0 1024 1024" version="1.1" xmlns="http://www.w3.org/2000/svg" p-id="2815" width="200" height="200"><path d="M289.418111 862.823134c-38.20616 0-63.563688-25.388227-63.563688-63.563688L225.854423 195.407482c0-38.113039 25.357528-63.563688 63.563688-63.563688l444.943768 0c38.20616 0 63.562665 25.450648 63.562665 63.563688l0 603.851964c0.030699 38.176484-25.325805 63.563688-63.562665 63.563688L289.418111 862.823134zM289.418111 163.626661c-16.170285 0-31.781844 15.672958-31.781844 31.781844l0 603.851964c0.030699 16.139585 15.642259 31.782867 31.781844 31.782867l444.943768 0c16.170285 0 31.781844-15.642259 31.781844-31.782867L766.143723 195.407482c0-16.107863-15.611559-31.781844-31.781844-31.781844L289.418111 163.625638zM384.421858 322.721099l254.936273 0 0 31.936363-254.936273 0L384.421858 322.721099 384.421858 322.721099 384.421858 322.721099zM384.421858 640.041188l254.936273 0 0 31.936363-254.936273 0L384.421858 640.041188 384.421858 640.041188 384.421858 640.041188zM384.421858 481.380632l254.936273 0 0 31.936363-254.936273 0L384.421858 481.380632 384.421858 481.380632 384.421858 481.380632zM384.421858 481.380632" p-id="2816"></path></svg>